<svg width="423" height="516" viewBox="0 0 423 516" fill="none" xmlns="http://www.w3.org/2000/svg">
<path d="M234.012 411.38L182.259 381.526C178.587 379.408 179.046 375.692 183.288 373.241L232.967 344.589C237.209 342.138 243.634 341.869 247.322 343.988L299.075 373.842C302.747 375.96 302.288 379.676 298.046 382.127L248.367 410.779C244.125 413.23 237.699 413.499 234.012 411.38Z" fill="#0C0F38"/>
<g opacity="0.4">
<path d="M301.544 340.114H275.889L247.322 323.638C243.65 321.519 237.209 321.788 232.967 324.239L205.429 340.13H179.774V357.35C179.663 358.788 180.471 360.164 182.243 361.192L233.996 391.045C237.668 393.164 244.109 392.895 248.351 390.444L298.03 361.793C300.23 360.512 301.417 358.915 301.528 357.35H301.544V340.13V340.114Z" fill="url(#paint0_linear_1_23)"/>
<path d="M181.404 358.52V341.3H207.059L234.597 325.409C238.839 322.958 245.265 322.689 248.952 324.808L277.519 341.284H301.56V340.098H275.905L247.338 323.622C243.666 321.503 237.225 321.772 232.983 324.223L205.445 340.114H179.79V357.334C179.679 358.773 180.486 360.148 182.259 361.176L182.544 361.35C181.721 360.496 181.341 359.532 181.404 358.52Z" fill="#95FF83"/>
<path d="M233.996 373.81L182.243 343.957C178.571 341.838 179.03 338.122 183.272 335.671L232.951 307.019C237.193 304.569 243.619 304.3 247.306 306.419L299.059 336.272C302.731 338.391 302.272 342.107 298.03 344.557L248.351 373.209C244.109 375.66 237.684 375.929 233.996 373.81Z" fill="url(#paint1_linear_1_23)"/>
<path d="M299.059 336.272L247.306 306.419C245.407 305.312 242.764 304.869 240.058 305.027C242.02 305.138 243.856 305.612 245.28 306.419L297.033 336.272C300.705 338.391 300.246 342.107 296.005 344.557L246.325 373.209C244.283 374.395 241.719 375.059 239.219 375.201C242.321 375.391 245.755 374.711 248.351 373.209L298.03 344.557C302.272 342.107 302.747 338.407 299.059 336.272Z" fill="#6EE8FC"/>
<path d="M240.327 366.695C238.507 366.695 236.766 366.331 235.468 365.572L196.946 343.356C195.617 342.581 194.873 341.506 194.873 340.288C194.873 338.865 195.902 337.458 197.706 336.414L234.692 315.084C237.969 313.186 242.97 312.996 245.819 314.641L284.34 336.857C285.67 337.632 286.414 338.707 286.414 339.909C286.414 341.332 285.385 342.739 283.581 343.783L246.594 365.113C244.806 366.141 242.511 366.679 240.327 366.679V366.695ZM235.911 364.813C238.523 366.315 243.112 366.125 246.151 364.37L283.138 343.04C284.657 342.154 285.527 341.031 285.527 339.94C285.527 339.071 284.942 338.248 283.897 337.648L245.375 315.431C242.764 313.929 238.159 314.119 235.136 315.874L198.149 337.205C196.63 338.075 195.759 339.213 195.759 340.304C195.759 341.174 196.345 341.996 197.389 342.597L235.911 364.813Z" fill="#47FC28"/>
<path d="M236.307 373.81L184.554 343.957C180.882 341.838 181.341 338.122 185.583 335.671L235.262 307.019C237.272 305.849 239.789 305.185 242.258 305.027C239.108 304.806 235.595 305.486 232.936 307.019L183.256 335.671C179.015 338.122 178.54 341.822 182.227 343.957L233.98 373.81C235.911 374.917 238.602 375.375 241.34 375.201C239.44 375.059 237.684 374.601 236.307 373.81Z" fill="#95FF83"/>
</g>
<g opacity="0.5">
<path d="M301.544 316.412H275.889L247.322 299.936C243.65 297.817 237.209 298.086 232.967 300.536L205.429 316.428H179.774V333.647C179.663 335.086 180.471 336.462 182.243 337.489L233.996 367.343C237.668 369.462 244.109 369.193 248.351 366.742L298.03 338.09C300.23 336.81 301.417 335.213 301.528 333.647H301.544V316.428V316.412Z" fill="#47FC28"/>
<path d="M181.404 334.801V317.582H207.059L234.597 301.691C238.839 299.24 245.265 298.971 248.952 301.09L277.519 317.566H301.56V316.38H275.905L247.338 299.904C243.666 297.785 237.225 298.054 232.983 300.505L205.445 316.396H179.79V333.615C179.679 335.054 180.486 336.43 182.259 337.458L182.544 337.632C181.721 336.778 181.341 335.813 181.404 334.801Z" fill="#95FF83"/>
<path d="M233.996 350.108L182.243 320.254C178.571 318.135 179.03 314.419 183.272 311.969L232.951 283.317C237.193 280.866 243.619 280.597 247.306 282.716L299.059 312.569C302.731 314.688 302.272 318.404 298.03 320.855L248.351 349.507C244.109 351.958 237.684 352.226 233.996 350.108Z" fill="#47FC28"/>
<path d="M299.059 312.569L247.306 282.716C245.407 281.609 242.764 281.166 240.058 281.325C242.02 281.435 243.856 281.91 245.28 282.716L297.033 312.569C300.705 314.688 300.246 318.404 296.005 320.855L246.325 349.507C244.283 350.693 241.719 351.357 239.219 351.499C242.321 351.689 245.755 351.009 248.351 349.507L298.03 320.855C302.272 318.404 302.747 314.704 299.059 312.569Z" fill="#6EE8FC"/>
<path d="M240.327 342.992C238.507 342.992 236.766 342.628 235.468 341.869L196.946 319.653C195.617 318.879 194.873 317.803 194.873 316.586C194.873 315.163 195.902 313.755 197.706 312.712L234.692 291.381C237.969 289.5 242.97 289.294 245.819 290.938L284.34 313.155C285.67 313.929 286.414 315.005 286.414 316.206C286.414 317.629 285.385 319.037 283.581 320.08L246.594 341.411C244.806 342.439 242.511 342.976 240.327 342.976V342.992ZM235.911 341.11C238.523 342.613 243.112 342.423 246.151 340.668L283.138 319.337C284.657 318.452 285.527 317.329 285.527 316.238C285.527 315.368 284.942 314.546 283.897 313.945L245.375 291.729C242.764 290.227 238.174 290.417 235.136 292.172L198.149 313.502C196.63 314.372 195.759 315.511 195.759 316.602C195.759 317.471 196.345 318.293 197.389 318.894L235.911 341.11Z" fill="#47FC28"/>
<path d="M236.307 350.108L184.554 320.254C180.882 318.135 181.341 314.419 185.583 311.969L235.262 283.317C237.272 282.147 239.789 281.483 242.258 281.325C239.108 281.103 235.595 281.783 232.936 283.317L183.256 311.969C179.015 314.419 178.54 318.12 182.227 320.254L233.98 350.108C235.911 351.214 238.602 351.673 241.34 351.499C239.44 351.357 237.684 350.898 236.307 350.108Z" fill="#95FF83"/>
</g>
<g opacity="0.7">
<path d="M301.544 292.694H275.889L247.322 276.217C243.65 274.098 237.209 274.367 232.967 276.818L205.429 292.709H179.774V309.929C179.663 311.368 180.471 312.743 182.243 313.771L233.996 343.625C237.668 345.743 244.109 345.475 248.351 343.024L298.03 314.372C300.23 313.091 301.417 311.494 301.528 309.929H301.544V292.709V292.694Z" fill="url(#paint2_linear_1_23)"/>
<path d="M181.404 311.099V293.879H207.059L234.597 277.988C238.839 275.537 245.265 275.269 248.952 277.387L277.519 293.864H301.56V292.678H275.905L247.338 276.202C243.666 274.083 237.225 274.351 232.983 276.802L205.445 292.694H179.79V309.913C179.679 311.352 180.486 312.728 182.259 313.755L182.544 313.929C181.721 313.075 181.341 312.111 181.404 311.099Z" fill="#95FF83"/>
<path d="M233.996 326.389L182.243 296.536C178.571 294.417 179.03 290.701 183.272 288.25L232.951 259.599C237.193 257.148 243.619 256.879 247.306 258.998L299.059 288.851C302.731 290.97 302.272 294.686 298.03 297.137L248.351 325.788C244.109 328.239 237.684 328.508 233.996 326.389Z" fill="url(#paint3_linear_1_23)"/>
<path d="M299.059 288.851L247.306 258.998C245.407 257.891 242.764 257.448 240.058 257.606C242.02 257.717 243.856 258.191 245.28 258.998L297.033 288.851C300.705 290.97 300.246 294.686 296.005 297.137L246.325 325.788C244.283 326.974 241.719 327.638 239.219 327.781C242.321 327.971 245.755 327.291 248.351 325.788L298.03 297.137C302.272 294.686 302.747 290.986 299.059 288.851Z" fill="#03A100"/>
<path d="M240.327 319.29C238.507 319.29 236.766 318.926 235.468 318.167L196.946 295.951C195.617 295.176 194.873 294.101 194.873 292.899C194.873 291.476 195.902 290.069 197.706 289.025L234.692 267.695C237.969 265.797 242.97 265.607 245.819 267.252L284.34 289.468C285.67 290.243 286.414 291.318 286.414 292.52C286.414 293.943 285.385 295.35 283.581 296.394L246.594 317.724C244.806 318.752 242.511 319.29 240.327 319.29ZM240.96 266.999C238.934 266.999 236.797 267.489 235.136 268.454L198.149 289.784C196.63 290.67 195.759 291.792 195.759 292.883C195.759 293.753 196.345 294.575 197.389 295.176L235.911 317.392C238.523 318.894 243.112 318.705 246.151 316.949L283.138 295.619C284.657 294.733 285.527 293.611 285.527 292.52C285.527 291.65 284.942 290.828 283.897 290.227L245.375 268.011C244.204 267.331 242.622 266.999 240.96 266.999Z" fill="#47FC28"/>
<path d="M236.307 326.389L184.554 296.536C180.882 294.417 181.341 290.701 185.583 288.25L235.262 259.599C237.272 258.429 239.789 257.765 242.258 257.606C239.108 257.385 235.595 258.065 232.936 259.599L183.256 288.25C179.015 290.701 178.54 294.401 182.227 296.536L233.98 326.389C235.911 327.496 238.602 327.955 241.34 327.781C239.44 327.638 237.684 327.18 236.307 326.389Z" fill="#95FF83"/>
</g>
<path d="M301.544 235.027H275.889L247.322 218.55C243.65 216.431 237.209 216.7 232.967 219.151L205.429 235.042H179.774V252.262C179.663 253.701 180.471 255.076 182.243 256.104L233.996 285.958C237.668 288.076 244.109 287.808 248.351 285.357L298.03 256.705C300.23 255.424 301.417 253.827 301.528 252.262H301.544V235.042V235.027Z" fill="url(#paint4_linear_1_23)"/>
<path d="M181.404 253.432V236.213H207.059L234.597 220.321C238.839 217.87 245.265 217.602 248.952 219.72L277.519 236.197H301.56V235.011H275.905L247.338 218.535C243.666 216.416 237.225 216.684 232.983 219.135L205.445 235.027H179.79V252.246C179.679 253.685 180.486 255.061 182.259 256.088L182.544 256.262C181.721 255.408 181.341 254.444 181.404 253.432Z" fill="#95FF83"/>
<path d="M233.996 268.722L182.243 238.869C178.571 236.75 179.03 233.034 183.272 230.583L232.951 201.932C237.193 199.481 243.619 199.212 247.306 201.331L299.059 231.184C302.731 233.303 302.272 237.019 298.03 239.47L248.351 268.121C244.109 270.572 237.684 270.841 233.996 268.722Z" fill="url(#paint5_linear_1_23)"/>
<path d="M299.059 231.184L247.306 201.331C245.407 200.224 242.764 199.781 240.058 199.939C242.02 200.05 243.856 200.524 245.28 201.331L297.033 231.184C300.705 233.303 300.246 237.019 296.005 239.47L246.325 268.121C244.283 269.307 241.719 269.971 239.219 270.114C242.321 270.304 245.755 269.624 248.351 268.121L298.03 239.47C302.272 237.019 302.747 233.319 299.059 231.184Z" fill="#95FF83"/>
<path d="M235.689 260.121L197.168 237.904C194.43 236.323 194.778 233.572 197.927 231.738L234.914 210.407C238.079 208.589 242.859 208.383 245.597 209.964L284.119 232.18C286.857 233.762 286.509 236.513 283.359 238.347L246.372 259.678C243.207 261.496 238.427 261.702 235.689 260.121Z" fill="#47FC28"/>
<path d="M236.307 268.722L184.554 238.869C180.882 236.75 181.341 233.034 185.583 230.583L235.262 201.932C237.272 200.762 239.789 200.098 242.258 199.939C239.108 199.718 235.595 200.398 232.936 201.932L183.256 230.583C179.015 233.034 178.54 236.734 182.227 238.869L233.98 268.722C235.911 269.829 238.602 270.288 241.34 270.114C239.44 269.971 237.684 269.513 236.307 268.722Z" fill="#03A100"/>
<g opacity="0.4">
<path d="M384.618 392.026H358.963L330.396 375.549C326.724 373.431 320.282 373.699 316.041 376.15L288.503 392.041H262.848V409.261C262.737 410.7 263.544 412.075 265.317 413.103L317.07 442.957C320.741 445.075 327.183 444.807 331.424 442.356L381.104 413.704C383.304 412.423 384.491 410.826 384.602 409.261H384.618V392.041V392.026Z" fill="url(#paint6_linear_1_23)"/>
<path d="M264.478 410.415V393.196H290.133L317.671 377.305C321.913 374.854 328.338 374.585 332.026 376.704L360.593 393.18H384.633V391.994H358.979L330.412 375.518C326.74 373.399 320.298 373.668 316.057 376.119L288.519 392.01H262.864V409.229C262.753 410.668 263.56 412.044 265.333 413.072L265.617 413.246C264.795 412.392 264.415 411.427 264.478 410.415Z" fill="#95FF83"/>
<path d="M317.054 425.705L265.301 395.852C261.629 393.733 262.088 390.017 266.329 387.566L316.009 358.915C320.251 356.464 326.676 356.195 330.364 358.314L382.117 388.167C385.788 390.286 385.329 394.002 381.088 396.453L331.408 425.105C327.167 427.555 320.741 427.824 317.054 425.705Z" fill="url(#paint7_linear_1_23)"/>
<path d="M382.133 388.183L330.38 358.33C328.481 357.223 325.838 356.78 323.131 356.938C325.094 357.049 326.93 357.523 328.354 358.33L380.107 388.183C383.779 390.302 383.32 394.018 379.078 396.469L329.399 425.12C327.357 426.306 324.793 426.971 322.292 427.113C325.394 427.303 328.829 426.623 331.424 425.12L381.104 396.469C385.346 394.018 385.82 390.318 382.133 388.183Z" fill="#03A100"/>
<path d="M323.4 418.606C321.58 418.606 319.839 418.242 318.542 417.483L280.02 395.267C278.69 394.492 277.946 393.417 277.946 392.215C277.946 390.792 278.975 389.385 280.779 388.341L317.766 367.011C321.042 365.113 326.043 364.924 328.892 366.568L367.414 388.784C368.744 389.559 369.487 390.634 369.487 391.852C369.487 393.275 368.459 394.682 366.654 395.726L329.668 417.056C327.879 418.084 325.584 418.622 323.4 418.622V418.606ZM318.985 416.724C321.596 418.226 326.202 418.037 329.225 416.281L366.211 394.951C367.731 394.081 368.601 392.943 368.601 391.852C368.601 390.982 368.015 390.16 366.971 389.559L328.449 367.343C325.838 365.841 321.232 366.03 318.209 367.786L281.223 389.116C279.703 390.002 278.833 391.124 278.833 392.215C278.833 393.085 279.418 393.907 280.463 394.508L318.985 416.724Z" fill="#47FC28"/>
<path d="M319.38 425.706L267.627 395.852C263.956 393.733 264.415 390.017 268.656 387.567L318.336 358.915C320.346 357.745 322.862 357.081 325.331 356.923C322.182 356.701 318.668 357.381 316.009 358.915L266.33 387.567C262.088 390.017 261.613 393.718 265.301 395.852L317.054 425.706C318.985 426.812 321.675 427.271 324.413 427.097C322.514 426.955 320.757 426.496 319.38 425.706Z" fill="#95FF83"/>
</g>
<g opacity="0.5">
<path d="M384.618 368.307H358.963L330.396 351.831C326.724 349.712 320.282 349.981 316.041 352.432L288.503 368.323H262.848V385.543C262.737 386.982 263.544 388.357 265.317 389.385L317.07 419.238C320.741 421.357 327.183 421.088 331.424 418.638L381.104 389.986C383.304 388.705 384.491 387.108 384.602 385.543H384.618V368.323V368.307Z" fill="url(#paint8_linear_1_23)"/>
<path d="M264.478 386.713V369.493H290.133L317.671 353.602C321.913 351.151 328.338 350.882 332.026 353.001L360.593 369.477H384.633V368.292H358.979L330.412 351.815C326.74 349.696 320.298 349.965 316.057 352.416L288.519 368.307H262.864V385.527C262.753 386.966 263.56 388.341 265.333 389.369L265.617 389.543C264.795 388.689 264.415 387.725 264.478 386.713Z" fill="#95FF83"/>
<path d="M317.054 402.003L265.301 372.15C261.629 370.031 262.088 366.315 266.329 363.864L316.009 335.212C320.251 332.762 326.676 332.493 330.364 334.612L382.117 364.465C385.788 366.584 385.329 370.3 381.088 372.75L331.408 401.402C327.167 403.853 320.741 404.122 317.054 402.003Z" fill="url(#paint9_linear_1_23)"/>
<path d="M382.133 364.465L330.38 334.612C328.481 333.505 325.838 333.062 323.131 333.22C325.094 333.331 326.93 333.805 328.354 334.612L380.107 364.465C383.779 366.584 383.32 370.3 379.078 372.751L329.399 401.402C327.357 402.588 324.793 403.252 322.292 403.395C325.394 403.584 328.829 402.904 331.424 401.402L381.104 372.751C385.346 370.3 385.82 366.6 382.133 364.465Z" fill="#03A100"/>
<path d="M323.4 394.888C321.58 394.888 319.839 394.524 318.542 393.765L280.02 371.549C278.69 370.774 277.946 369.699 277.946 368.481C277.946 367.058 278.975 365.651 280.779 364.607L317.766 343.277C321.042 341.379 326.043 341.189 328.892 342.834L367.414 365.05C368.744 365.825 369.487 366.9 369.487 368.102C369.487 369.525 368.459 370.932 366.654 371.976L329.668 393.306C327.879 394.334 325.584 394.872 323.4 394.872V394.888ZM318.985 393.006C321.596 394.508 326.202 394.318 329.225 392.563L366.211 371.233C367.731 370.347 368.601 369.224 368.601 368.133C368.601 367.264 368.015 366.442 366.971 365.841L328.449 343.625C325.838 342.122 321.232 342.312 318.209 344.067L281.223 365.398C279.703 366.268 278.833 367.406 278.833 368.497C278.833 369.367 279.418 370.189 280.463 370.79L318.985 393.006Z" fill="#47FC28"/>
<path d="M319.38 402.003L267.627 372.15C263.956 370.031 264.415 366.315 268.656 363.864L318.336 335.212C320.346 334.042 322.862 333.378 325.331 333.22C322.182 332.999 318.668 333.679 316.009 335.212L266.33 363.864C262.088 366.315 261.613 370.015 265.301 372.15L317.054 402.003C318.985 403.11 321.675 403.569 324.413 403.395C322.514 403.252 320.757 402.794 319.38 402.003Z" fill="#95FF83"/>
</g>
<g opacity="0.7">
<path d="M384.618 344.605H358.963L330.396 328.129C326.724 326.01 320.282 326.279 316.041 328.73L288.503 344.621H262.848V361.84C262.737 363.279 263.544 364.655 265.317 365.683L317.07 395.536C320.741 397.655 327.183 397.386 331.424 394.935L381.104 366.283C383.304 365.003 384.491 363.406 384.602 361.84H384.618V344.621V344.605Z" fill="url(#paint10_linear_1_23)"/>
<path d="M264.478 362.995V345.775H290.133L317.671 329.884C321.913 327.433 328.338 327.164 332.026 329.283L360.593 345.759H384.633V344.573H358.979L330.412 328.097C326.74 325.978 320.298 326.247 316.057 328.698L288.519 344.589H262.864V361.809C262.753 363.247 263.56 364.623 265.333 365.651L265.617 365.825C264.795 364.971 264.415 364.006 264.478 362.995Z" fill="#95FF83"/>
<path d="M317.054 378.285L265.301 348.431C261.629 346.313 262.088 342.597 266.329 340.146L316.009 311.494C320.251 309.043 326.676 308.774 330.364 310.893L382.117 340.747C385.788 342.866 385.329 346.581 381.088 349.032L331.408 377.684C327.167 380.135 320.741 380.404 317.054 378.285Z" fill="url(#paint11_linear_1_23)"/>
<path d="M382.133 340.763L330.38 310.909C328.481 309.802 325.838 309.36 323.131 309.518C325.094 309.628 326.93 310.103 328.354 310.909L380.107 340.763C383.779 342.881 383.32 346.597 379.078 349.048L329.399 377.7C327.357 378.886 324.793 379.55 322.292 379.692C325.394 379.882 328.829 379.202 331.424 377.7L381.104 349.048C385.346 346.597 385.82 342.897 382.133 340.763Z" fill="#03A100"/>
<path d="M323.4 371.185C321.58 371.185 319.839 370.822 318.542 370.063L280.02 347.846C278.69 347.072 277.946 345.996 277.946 344.779C277.946 343.356 278.975 341.949 280.779 340.905L317.766 319.574C321.042 317.693 326.043 317.487 328.892 319.132L367.414 341.348C368.744 342.122 369.487 343.198 369.487 344.399C369.487 345.822 368.459 347.23 366.654 348.273L329.668 369.604C327.879 370.632 325.584 371.169 323.4 371.169V371.185ZM318.985 369.304C321.596 370.806 326.186 370.616 329.225 368.861L366.211 347.53C367.731 346.645 368.601 345.522 368.601 344.431C368.601 343.561 368.015 342.739 366.971 342.138L328.449 319.922C325.838 318.42 321.248 318.61 318.209 320.365L281.223 341.696C279.703 342.565 278.833 343.704 278.833 344.795C278.833 345.664 279.418 346.487 280.463 347.087L318.985 369.304Z" fill="#47FC28"/>
<path d="M319.38 378.285L267.627 348.431C263.956 346.313 264.415 342.597 268.656 340.146L318.336 311.494C320.346 310.324 322.862 309.66 325.331 309.502C322.182 309.281 318.668 309.96 316.009 311.494L266.33 340.146C262.088 342.597 261.613 346.297 265.301 348.431L317.054 378.285C318.985 379.392 321.675 379.85 324.413 379.676C322.514 379.534 320.757 379.075 319.38 378.285Z" fill="#95FF83"/>
</g>
<path d="M384.618 320.887H358.963L330.396 304.41C326.724 302.292 320.282 302.56 316.041 305.011L288.503 320.902H262.848V338.122C262.737 339.561 263.544 340.937 265.317 341.964L317.07 371.818C320.741 373.937 327.183 373.668 331.424 371.217L381.104 342.565C383.304 341.284 384.491 339.687 384.602 338.122H384.618V320.902V320.887Z" fill="url(#paint12_linear_1_23)"/>
<path d="M264.478 339.292V322.073H290.133L317.671 306.181C321.913 303.73 328.338 303.462 332.026 305.58L360.593 322.057H384.633V320.871H358.979L330.412 304.395C326.74 302.276 320.298 302.545 316.057 304.995L288.519 320.887H262.864V338.106C262.753 339.545 263.56 340.921 265.333 341.949L265.617 342.122C264.795 341.269 264.415 340.304 264.478 339.292Z" fill="#95FF83"/>
<path d="M317.054 354.582L265.301 324.729C261.629 322.61 262.088 318.894 266.329 316.443L316.009 287.792C320.251 285.341 326.676 285.072 330.364 287.191L382.117 317.044C385.788 319.163 385.329 322.879 381.088 325.33L331.408 353.981C327.167 356.432 320.741 356.701 317.054 354.582Z" fill="url(#paint13_linear_1_23)"/>
<path d="M382.133 317.044L330.38 287.191C328.481 286.084 325.838 285.641 323.131 285.799C325.094 285.91 326.93 286.385 328.354 287.191L380.107 317.044C383.779 319.163 383.32 322.879 379.078 325.33L329.399 353.982C327.357 355.167 324.793 355.832 322.292 355.974C325.394 356.164 328.829 355.484 331.424 353.982L381.104 325.33C385.346 322.879 385.82 319.179 382.133 317.044Z" fill="#03A100"/>
<path d="M323.778 347.229C321.958 347.229 320.217 346.866 318.919 346.107L280.397 323.89C279.068 323.116 278.324 322.025 278.324 320.823C278.324 319.4 279.353 317.993 281.157 316.949L318.144 295.618C321.42 293.721 326.421 293.531 329.27 295.176L367.792 317.392C369.121 318.166 369.865 319.242 369.865 320.443C369.865 321.867 368.836 323.274 367.032 324.317L330.045 345.648C328.257 346.676 325.962 347.213 323.778 347.213V347.229ZM319.362 345.348C321.974 346.85 326.563 346.66 329.602 344.905L366.589 323.574C368.108 322.689 368.979 321.566 368.979 320.475C368.979 319.605 368.393 318.783 367.349 318.182L328.827 295.966C326.215 294.464 321.626 294.654 318.587 296.409L281.6 317.74C280.081 318.609 279.21 319.748 279.21 320.839C279.21 321.708 279.796 322.531 280.84 323.132L319.362 345.348Z" fill="url(#paint14_linear_1_23)"/>
<path d="M319.38 354.582L267.627 324.729C263.956 322.61 264.415 318.894 268.656 316.443L318.336 287.792C320.346 286.622 322.862 285.958 325.331 285.799C322.182 285.578 318.668 286.258 316.009 287.792L266.33 316.443C262.088 318.894 261.613 322.594 265.301 324.729L317.054 354.582C318.985 355.689 321.675 356.148 324.413 355.974C322.514 355.832 320.757 355.373 319.38 354.582Z" fill="#03A100"/>
<path d="M332.896 364.165L376.673 338.865C377.068 338.628 377.401 338.011 377.401 337.474V335.402C377.401 334.865 377.068 334.627 376.673 334.849L332.896 360.148C332.501 360.385 332.168 361.002 332.168 361.54V363.611C332.168 364.149 332.501 364.386 332.896 364.165Z" fill="#47FC28"/>
<path d="M375.707 338.327C376.103 338.09 376.435 337.473 376.435 336.936V335.007L376.673 334.864C377.068 334.627 377.401 334.864 377.401 335.418V337.489C377.401 338.027 377.068 338.644 376.673 338.881L332.896 364.18C332.501 364.417 332.168 364.18 332.168 363.627V363.5L375.707 338.343V338.327Z" fill="#03A100"/>
<g opacity="0.4">
<path d="M217.979 387.772H192.325L163.758 371.296C160.086 369.177 153.644 369.446 149.403 371.897L121.865 387.788H96.2098V405.007C96.099 406.446 96.9062 407.822 98.6787 408.85L150.432 438.703C154.103 440.822 160.545 440.553 164.786 438.102L214.466 409.451C216.666 408.17 217.853 406.573 217.964 405.007H217.979V387.788V387.772Z" fill="url(#paint15_linear_1_23)"/>
<path d="M97.8399 406.162V388.942H123.495L151.033 373.051C155.275 370.6 161.7 370.331 165.388 372.45L193.955 388.926H217.995V387.741H192.34L163.773 371.264C160.102 369.145 153.66 369.414 149.419 371.865L121.88 387.756H96.2256V404.976C96.1148 406.415 96.922 407.79 98.6945 408.818L98.9794 408.992C98.1564 408.138 97.7766 407.174 97.8399 406.162Z" fill="#95FF83"/>
<path d="M150.432 421.452L98.6786 391.599C95.0068 389.48 95.4658 385.764 99.7073 383.313L149.387 354.661C153.628 352.21 160.054 351.942 163.742 354.061L215.495 383.914C219.166 386.033 218.707 389.749 214.466 392.199L164.786 420.851C160.545 423.302 154.119 423.571 150.432 421.452Z" fill="url(#paint16_linear_1_23)"/>
<path d="M215.495 383.93L163.742 354.076C161.843 352.97 159.2 352.527 156.493 352.685C158.456 352.796 160.292 353.27 161.716 354.076L213.469 383.93C217.141 386.049 216.682 389.764 212.44 392.215L162.761 420.867C160.719 422.053 158.155 422.717 155.654 422.859C158.756 423.049 162.191 422.369 164.786 420.867L214.466 392.215C218.708 389.764 219.182 386.064 215.495 383.93Z" fill="#03A100"/>
<path d="M156.778 414.352C154.958 414.352 153.217 413.989 151.919 413.23L113.397 391.014C112.068 390.239 111.324 389.164 111.324 387.962C111.324 386.539 112.353 385.132 114.157 384.088L151.144 362.757C154.42 360.86 159.421 360.67 162.27 362.315L200.792 384.531C202.121 385.305 202.865 386.381 202.865 387.598C202.865 389.021 201.836 390.429 200.032 391.472L163.045 412.803C161.257 413.831 158.962 414.368 156.778 414.368V414.352ZM152.362 412.471C154.974 413.973 159.579 413.783 162.602 412.028L199.589 390.697C201.108 389.828 201.979 388.689 201.979 387.598C201.979 386.729 201.393 385.906 200.349 385.305L161.827 363.089C159.215 361.587 154.61 361.777 151.587 363.532L114.6 384.863C113.081 385.748 112.21 386.871 112.21 387.962C112.21 388.832 112.796 389.654 113.841 390.255L152.362 412.471Z" fill="#47FC28"/>
<path d="M152.758 421.452L101.005 391.599C97.3335 389.48 97.7924 385.764 102.034 383.313L151.714 354.661C153.724 353.491 156.24 352.827 158.709 352.669C155.559 352.448 152.046 353.128 149.387 354.661L99.7075 383.313C95.4659 385.764 94.9911 389.464 98.6787 391.599L150.432 421.452C152.363 422.559 155.053 423.017 157.791 422.844C155.892 422.701 154.135 422.243 152.758 421.452Z" fill="#95FF83"/>
</g>
<g opacity="0.5">
<path d="M217.979 364.054H192.325L163.758 347.578C160.086 345.459 153.644 345.728 149.403 348.178L121.865 364.07H96.2098V381.289C96.099 382.728 96.9062 384.104 98.6787 385.132L150.432 414.985C154.103 417.104 160.545 416.835 164.786 414.384L214.466 385.732C216.666 384.452 217.853 382.855 217.964 381.289H217.979V364.07V364.054Z" fill="url(#paint17_linear_1_23)"/>
<path d="M97.8399 382.459V365.24H123.495L151.033 349.349C155.275 346.898 161.7 346.629 165.388 348.748L193.955 365.224H217.995V364.038H192.34L163.773 347.562C160.102 345.443 153.66 345.712 149.419 348.163L121.88 364.054H96.2256V381.273C96.1148 382.712 96.922 384.088 98.6945 385.116L98.9794 385.29C98.1564 384.436 97.7766 383.471 97.8399 382.459Z" fill="#95FF83"/>
<path d="M150.432 397.75L98.6786 367.896C95.0068 365.777 95.4658 362.061 99.7073 359.611L149.387 330.959C153.628 328.508 160.054 328.239 163.742 330.358L215.495 360.211C219.166 362.33 218.707 366.046 214.466 368.497L164.786 397.149C160.545 399.6 154.119 399.868 150.432 397.75Z" fill="url(#paint18_linear_1_23)"/>
<path d="M215.495 360.212L163.742 330.358C161.843 329.251 159.2 328.809 156.493 328.967C158.456 329.077 160.292 329.552 161.716 330.358L213.469 360.212C217.141 362.33 216.682 366.046 212.44 368.497L162.761 397.149C160.719 398.335 158.155 398.999 155.654 399.141C158.756 399.331 162.191 398.651 164.786 397.149L214.466 368.497C218.708 366.046 219.182 362.346 215.495 360.212Z" fill="#03A100"/>
<path d="M156.778 390.634C154.958 390.634 153.217 390.27 151.919 389.511L113.397 367.295C112.068 366.521 111.324 365.445 111.324 364.244C111.324 362.821 112.353 361.413 114.157 360.37L151.144 339.039C154.42 337.142 159.421 336.952 162.27 338.596L200.792 360.812C202.121 361.587 202.865 362.662 202.865 363.88C202.865 365.303 201.836 366.71 200.032 367.754L163.045 389.085C161.257 390.112 158.962 390.65 156.778 390.65V390.634ZM152.362 388.752C154.974 390.255 159.579 390.065 162.602 388.31L199.589 366.979C201.108 366.109 201.979 364.971 201.979 363.88C201.979 363.01 201.393 362.188 200.349 361.587L161.827 339.371C159.215 337.869 154.61 338.059 151.587 339.814L114.6 361.144C113.081 362.03 112.21 363.153 112.21 364.244C112.21 365.113 112.796 365.936 113.841 366.536L152.362 388.752Z" fill="#47FC28"/>
<path d="M152.758 397.75L101.005 367.896C97.3335 365.777 97.7924 362.062 102.034 359.611L151.714 330.959C153.724 329.789 156.24 329.125 158.709 328.967C155.559 328.745 152.046 329.425 149.387 330.959L99.7075 359.611C95.4659 362.062 94.9911 365.762 98.6787 367.896L150.432 397.75C152.363 398.856 155.053 399.315 157.791 399.141C155.892 398.999 154.135 398.54 152.758 397.75Z" fill="#95FF83"/>
</g>
<g opacity="0.7">
<path d="M217.979 340.351H192.325L163.758 323.875C160.086 321.756 153.644 322.025 149.403 324.476L121.865 340.367H96.2098V357.587C96.099 359.026 96.9062 360.401 98.6787 361.429L150.432 391.282C154.103 393.401 160.545 393.132 164.786 390.682L214.466 362.03C216.666 360.749 217.853 359.152 217.964 357.587H217.979V340.367V340.351Z" fill="url(#paint19_linear_1_23)"/>
<path d="M97.8399 358.741V341.522H123.495L151.033 325.63C155.275 323.179 161.7 322.911 165.388 325.029L193.955 341.506H217.995V340.32H192.34L163.773 323.844C160.102 321.725 153.66 321.994 149.419 324.444L121.88 340.336H96.2256V357.555C96.1148 358.994 96.922 360.37 98.6945 361.397L98.9794 361.571C98.1564 360.718 97.7766 359.753 97.8399 358.741Z" fill="#95FF83"/>
<path d="M150.432 374.047L98.6786 344.194C95.0068 342.075 95.4658 338.359 99.7073 335.908L149.387 307.257C153.628 304.806 160.054 304.537 163.742 306.656L215.495 336.509C219.166 338.628 218.707 342.344 214.466 344.795L164.786 373.446C160.545 375.897 154.119 376.166 150.432 374.047Z" fill="url(#paint20_linear_1_23)"/>
<path d="M215.495 336.509L163.742 306.656C161.843 305.549 159.2 305.106 156.493 305.264C158.456 305.375 160.292 305.849 161.716 306.656L213.469 336.509C217.141 338.628 216.682 342.344 212.44 344.795L162.761 373.446C160.719 374.632 158.155 375.296 155.654 375.439C158.756 375.628 162.191 374.948 164.786 373.446L214.466 344.795C218.708 342.344 219.182 338.644 215.495 336.509Z" fill="#03A100"/>
<path d="M156.778 366.932C154.958 366.932 153.217 366.568 151.919 365.809L113.397 343.593C112.068 342.818 111.324 341.743 111.324 340.525C111.324 339.102 112.353 337.695 114.157 336.651L151.144 315.321C154.42 313.423 159.421 313.234 162.27 314.878L200.792 337.094C202.121 337.869 202.865 338.944 202.865 340.146C202.865 341.569 201.836 342.976 200.032 344.02L163.045 365.351C161.257 366.378 158.962 366.916 156.778 366.916V366.932ZM152.362 365.05C154.974 366.552 159.579 366.363 162.602 364.607L199.589 343.277C201.108 342.391 201.979 341.269 201.979 340.178C201.979 339.308 201.393 338.486 200.349 337.885L161.827 315.669C159.215 314.167 154.61 314.356 151.587 316.111L114.6 337.442C113.081 338.312 112.21 339.45 112.21 340.541C112.21 341.411 112.796 342.233 113.841 342.834L152.362 365.05Z" fill="#47FC28"/>
<path d="M152.758 374.047L101.005 344.194C97.3335 342.075 97.7924 338.359 102.034 335.908L151.714 307.257C153.724 306.086 156.24 305.422 158.709 305.264C155.559 305.043 152.046 305.723 149.387 307.257L99.7075 335.908C95.4659 338.359 94.9911 342.059 98.6787 344.194L150.432 374.047C152.363 375.154 155.053 375.613 157.791 375.439C155.892 375.296 154.135 374.838 152.758 374.047Z" fill="#95FF83"/>
</g>
<path d="M217.979 316.633H192.325L163.758 300.157C160.086 298.038 153.644 298.307 149.403 300.758L121.865 316.649H96.2098V333.868C96.099 335.307 96.9062 336.683 98.6787 337.711L150.432 367.564C154.103 369.683 160.545 369.414 164.786 366.963L214.466 338.312C216.666 337.031 217.853 335.434 217.964 333.868H217.979V316.649V316.633Z" fill="url(#paint21_linear_1_23)"/>
<path d="M97.8399 335.039V317.819H123.495L151.033 301.928C155.275 299.477 161.7 299.208 165.388 301.327L193.955 317.803H217.995V316.617H192.34L163.773 300.141C160.102 298.022 153.66 298.291 149.419 300.742L121.88 316.633H96.2256V333.853C96.1148 335.292 96.922 336.667 98.6945 337.695L98.9794 337.869C98.1564 337.015 97.7766 336.051 97.8399 335.039Z" fill="#95FF83"/>
<path d="M150.432 350.329L98.6786 320.475C95.0068 318.357 95.4658 314.641 99.7073 312.19L149.387 283.538C153.628 281.087 160.054 280.819 163.742 282.937L215.495 312.791C219.166 314.91 218.707 318.625 214.466 321.076L164.786 349.728C160.545 352.179 154.119 352.448 150.432 350.329Z" fill="url(#paint22_linear_1_23)"/>
<path d="M215.495 312.791L163.742 282.937C161.843 281.831 159.2 281.388 156.493 281.546C158.456 281.657 160.292 282.131 161.716 282.937L213.469 312.791C217.141 314.91 216.682 318.626 212.44 321.076L162.761 349.728C160.719 350.914 158.155 351.578 155.654 351.72C158.756 351.91 162.191 351.23 164.786 349.728L214.466 321.076C218.708 318.626 219.182 314.925 215.495 312.791Z" fill="#03A100"/>
<path d="M156.778 343.229C154.958 343.229 153.217 342.866 151.919 342.107L113.397 319.89C112.068 319.116 111.324 318.025 111.324 316.823C111.324 315.4 112.353 313.993 114.157 312.949L151.144 291.618C154.42 289.721 159.421 289.531 162.27 291.176L200.792 313.392C202.121 314.166 202.865 315.242 202.865 316.443C202.865 317.867 201.836 319.274 200.032 320.317L163.045 341.648C161.257 342.676 158.962 343.213 156.778 343.213V343.229ZM152.362 341.348C154.974 342.85 159.564 342.66 162.602 340.905L199.589 319.574C201.108 318.689 201.979 317.566 201.979 316.475C201.979 315.605 201.393 314.783 200.349 314.182L161.827 291.966C159.215 290.464 154.626 290.654 151.587 292.409L114.6 313.74C113.081 314.609 112.21 315.748 112.21 316.839C112.21 317.708 112.796 318.531 113.841 319.132L152.362 341.348Z" fill="url(#paint23_linear_1_23)"/>
<path d="M152.758 350.329L101.005 320.476C97.3335 318.357 97.7924 314.641 102.034 312.19L151.714 283.538C153.724 282.368 156.24 281.704 158.709 281.546C155.559 281.325 152.046 282.005 149.387 283.538L99.7075 312.19C95.4659 314.641 94.9911 318.341 98.6787 320.476L150.432 350.329C152.363 351.436 155.053 351.894 157.791 351.72C155.892 351.578 154.135 351.12 152.758 350.329Z" fill="#03A100"/>
<path d="M148.137 359.911L104.36 334.612C103.965 334.374 103.632 333.758 103.632 333.22V331.149C103.632 330.611 103.965 330.374 104.36 330.595L148.137 355.895C148.532 356.132 148.865 356.749 148.865 357.286V359.358C148.865 359.895 148.532 360.132 148.137 359.911Z" fill="#47FC28"/>
<path d="M105.326 334.074C104.93 333.837 104.598 333.22 104.598 332.682V330.753L104.36 330.611C103.965 330.374 103.632 330.611 103.632 331.164V333.236C103.632 333.773 103.965 334.39 104.36 334.627L148.137 359.927C148.532 360.164 148.865 359.927 148.865 359.373V359.247L105.326 334.09V334.074Z" fill="#03A200"/>
<g opacity="0.4">
<path d="M301.053 439.668H275.398L246.831 423.191C243.16 421.073 236.718 421.341 232.477 423.792L204.938 439.684H179.283V456.903C179.173 458.342 179.98 459.718 181.752 460.745L233.505 490.599C237.177 492.718 243.619 492.449 247.86 489.998L297.54 461.346C299.74 460.065 300.927 458.468 301.037 456.903H301.053V439.684V439.668Z" fill="url(#paint24_linear_1_23)"/>
<path d="M180.914 458.073V440.854H206.569L234.107 424.962C238.348 422.511 244.774 422.243 248.461 424.362L277.028 440.838H301.069V439.652H275.414L246.847 423.176C243.175 421.057 236.734 421.326 232.492 423.776L204.954 439.668H179.299V456.887C179.189 458.326 179.996 459.702 181.768 460.729L182.053 460.903C181.23 460.05 180.85 459.085 180.914 458.073Z" fill="#95FF83"/>
<path d="M233.505 473.363L181.752 443.51C178.08 441.391 178.539 437.675 182.781 435.224L232.461 406.573C236.702 404.122 243.128 403.853 246.815 405.972L298.568 435.825C302.24 437.944 301.781 441.66 297.54 444.111L247.86 472.762C243.618 475.213 237.193 475.482 233.505 473.363Z" fill="url(#paint25_linear_1_23)"/>
<path d="M298.568 435.825L246.816 405.972C244.916 404.865 242.273 404.422 239.567 404.58C241.529 404.691 243.365 405.166 244.79 405.972L296.543 435.825C300.214 437.944 299.755 441.66 295.514 444.111L245.834 472.763C243.793 473.948 241.229 474.613 238.728 474.755C241.83 474.945 245.265 474.265 247.86 472.763L297.54 444.111C301.781 441.66 302.256 437.96 298.568 435.825Z" fill="#03A100"/>
<path d="M239.852 466.248C238.032 466.248 236.291 465.884 234.993 465.125L196.471 442.909C195.142 442.134 194.398 441.059 194.398 439.857C194.398 438.434 195.427 437.027 197.231 435.983L234.218 414.653C237.494 412.755 242.495 412.566 245.344 414.21L283.866 436.426C285.195 437.201 285.939 438.276 285.939 439.478C285.939 440.901 284.91 442.308 283.106 443.352L246.119 464.683C244.331 465.71 242.036 466.248 239.852 466.248ZM240.485 413.957C238.459 413.957 236.323 414.447 234.661 415.412L197.674 436.742C196.155 437.628 195.284 438.751 195.284 439.842C195.284 440.711 195.87 441.534 196.914 442.134L235.436 464.35C238.048 465.868 242.637 465.663 245.676 463.908L282.663 442.577C284.182 441.692 285.053 440.569 285.053 439.478C285.053 438.608 284.467 437.786 283.422 437.185L244.901 414.969C243.729 414.289 242.147 413.957 240.485 413.957Z" fill="#47FC28"/>
<path d="M235.832 473.363L184.079 443.51C180.407 441.391 180.866 437.675 185.108 435.224L234.787 406.573C236.797 405.403 239.314 404.739 241.783 404.58C238.633 404.359 235.12 405.039 232.461 406.573L182.781 435.224C178.54 437.675 178.065 441.375 181.752 443.51L233.505 473.363C235.436 474.47 238.127 474.929 240.865 474.755C238.966 474.613 237.209 474.154 235.832 473.363Z" fill="#95FF83"/>
</g>
<g opacity="0.5">
<path d="M301.053 415.965H275.398L246.831 399.489C243.16 397.37 236.718 397.639 232.477 400.09L204.938 415.981H179.283V433.201C179.173 434.639 179.98 436.015 181.752 437.043L233.505 466.896C237.177 469.015 243.619 468.746 247.86 466.295L297.54 437.644C299.74 436.363 300.927 434.766 301.037 433.201H301.053V415.981V415.965Z" fill="url(#paint26_linear_1_23)"/>
<path d="M180.914 434.355V417.135H206.569L234.107 401.244C238.348 398.793 244.774 398.524 248.461 400.643L277.028 417.12H301.069V415.934H275.414L246.847 399.457C243.175 397.339 236.734 397.607 232.492 400.058L204.954 415.949H179.299V433.169C179.189 434.608 179.996 435.983 181.768 437.011L182.053 437.185C181.23 436.331 180.85 435.367 180.914 434.355Z" fill="#95FF83"/>
<path d="M233.505 449.645L181.752 419.792C178.08 417.673 178.539 413.957 182.781 411.506L232.461 382.854C236.702 380.404 243.128 380.135 246.815 382.254L298.568 412.107C302.24 414.226 301.781 417.942 297.54 420.393L247.86 449.044C243.618 451.495 237.193 451.764 233.505 449.645Z" fill="url(#paint27_linear_1_23)"/>
<path d="M298.568 412.123L246.816 382.27C244.916 381.163 242.273 380.72 239.567 380.878C241.529 380.989 243.365 381.463 244.79 382.27L296.543 412.123C300.214 414.242 299.755 417.958 295.514 420.408L245.834 449.06C243.793 450.246 241.229 450.91 238.728 451.052C241.83 451.242 245.265 450.562 247.86 449.06L297.54 420.408C301.781 417.958 302.256 414.258 298.568 412.123Z" fill="#03A100"/>
<path d="M239.852 442.546C238.032 442.546 236.291 442.182 234.993 441.423L196.471 419.207C195.142 418.432 194.398 417.357 194.398 416.155C194.398 414.732 195.427 413.325 197.231 412.281L234.218 390.95C237.494 389.053 242.495 388.863 245.344 390.508L283.866 412.724C285.195 413.499 285.939 414.574 285.939 415.791C285.939 417.214 284.91 418.622 283.106 419.665L246.119 440.996C244.331 442.024 242.036 442.561 239.852 442.561V442.546ZM235.436 440.664C238.048 442.166 242.653 441.976 245.676 440.221L282.663 418.89C284.182 418.021 285.053 416.882 285.053 415.791C285.053 414.922 284.467 414.099 283.422 413.499L244.901 391.282C242.289 389.78 237.699 389.97 234.661 391.725L197.674 413.056C196.155 413.941 195.284 415.064 195.284 416.155C195.284 417.025 195.87 417.847 196.914 418.448L235.436 440.664Z" fill="#47FC28"/>
<path d="M235.832 449.645L184.079 419.792C180.407 417.673 180.866 413.957 185.108 411.506L234.787 382.855C236.797 381.684 239.314 381.02 241.783 380.862C238.633 380.641 235.12 381.321 232.461 382.855L182.781 411.506C178.54 413.957 178.065 417.657 181.752 419.792L233.505 449.645C235.436 450.752 238.127 451.211 240.865 451.037C238.966 450.894 237.209 450.436 235.832 449.645Z" fill="#95FF83"/>
</g>
<g opacity="0.7">
<path d="M301.053 392.247H275.398L246.831 375.771C243.16 373.652 236.718 373.921 232.477 376.372L204.938 392.263H179.283V409.482C179.173 410.921 179.98 412.297 181.752 413.325L233.505 443.178C237.177 445.297 243.619 445.028 247.86 442.577L297.54 413.925C299.74 412.645 300.927 411.048 301.037 409.482H301.053V392.263V392.247Z" fill="url(#paint28_linear_1_23)"/>
<path d="M180.914 410.652V393.433H206.569L234.107 377.542C238.348 375.091 244.774 374.822 248.461 376.941L277.028 393.417H301.069V392.231H275.414L246.847 375.755C243.175 373.636 236.734 373.905 232.492 376.356L204.954 392.247H179.299V409.466C179.189 410.905 179.996 412.281 181.768 413.309L182.053 413.483C181.23 412.629 180.85 411.664 180.914 410.652Z" fill="#95FF83"/>
<path d="M233.505 425.943L181.752 396.089C178.08 393.97 178.539 390.255 182.781 387.804L232.461 359.152C236.702 356.701 243.128 356.432 246.815 358.551L298.568 388.405C302.24 390.523 301.781 394.239 297.54 396.69L247.86 425.342C243.618 427.793 237.193 428.061 233.505 425.943Z" fill="url(#paint29_linear_1_23)"/>
<path d="M298.568 388.405L246.816 358.551C244.916 357.444 242.273 357.002 239.567 357.16C241.529 357.27 243.365 357.745 244.79 358.551L296.543 388.405C300.214 390.523 299.755 394.239 295.514 396.69L245.834 425.342C243.793 426.528 241.229 427.192 238.728 427.334C241.83 427.524 245.265 426.844 247.86 425.342L297.54 396.69C301.781 394.239 302.256 390.539 298.568 388.405Z" fill="#03A100"/>
<path d="M239.852 418.827C238.032 418.827 236.291 418.464 234.993 417.705L196.471 395.488C195.142 394.714 194.398 393.638 194.398 392.437C194.398 391.014 195.427 389.606 197.231 388.563L234.218 367.232C237.494 365.335 242.495 365.145 245.344 366.789L283.866 389.005C285.195 389.78 285.939 390.856 285.939 392.073C285.939 393.496 284.91 394.903 283.106 395.947L246.119 417.278C244.331 418.305 242.036 418.843 239.852 418.843V418.827ZM235.436 416.946C238.048 418.448 242.653 418.258 245.676 416.503L282.663 395.172C284.182 394.303 285.053 393.164 285.053 392.073C285.053 391.203 284.467 390.381 283.422 389.78L244.901 367.564C242.289 366.062 237.684 366.252 234.661 368.007L197.674 389.338C196.155 390.223 195.284 391.346 195.284 392.437C195.284 393.306 195.87 394.129 196.914 394.729L235.436 416.946Z" fill="#47FC28"/>
<path d="M235.832 425.943L184.079 396.089C180.407 393.971 180.866 390.255 185.108 387.804L234.787 359.152C236.797 357.982 239.314 357.318 241.783 357.16C238.633 356.938 235.12 357.618 232.461 359.152L182.781 387.804C178.54 390.255 178.065 393.955 181.752 396.089L233.505 425.943C235.436 427.05 238.127 427.508 240.865 427.334C238.966 427.192 237.209 426.733 235.832 425.943Z" fill="#95FF83"/>
</g>
<path d="M301.053 368.545H275.398L246.831 352.068C243.16 349.949 236.718 350.218 232.477 352.669L204.938 368.56H179.283V385.78C179.173 387.219 179.98 388.594 181.752 389.622L233.505 419.476C237.177 421.594 243.619 421.326 247.86 418.875L297.54 390.223C299.74 388.942 300.927 387.345 301.037 385.78H301.053V368.56V368.545Z" fill="url(#paint30_linear_1_23)"/>
<path d="M180.914 386.934V369.715H206.569L234.107 353.823C238.348 351.373 244.774 351.104 248.461 353.223L277.028 369.699H301.069V368.513H275.414L246.847 352.037C243.175 349.918 236.734 350.187 232.492 352.638L204.954 368.529H179.299V385.748C179.189 387.187 179.996 388.563 181.768 389.591L182.053 389.764C181.23 388.911 180.85 387.946 180.914 386.934Z" fill="#95FF83"/>
<path d="M233.505 402.224L181.752 372.371C178.08 370.252 178.539 366.536 182.781 364.085L232.461 335.434C236.702 332.983 243.128 332.714 246.815 334.833L298.568 364.686C302.24 366.805 301.781 370.521 297.54 372.972L247.86 401.624C243.618 404.074 237.193 404.343 233.505 402.224Z" fill="url(#paint31_linear_1_23)"/>
<path d="M298.568 364.702L246.816 334.849C244.916 333.742 242.273 333.299 239.567 333.457C241.529 333.568 243.365 334.042 244.79 334.849L296.543 364.702C300.214 366.821 299.755 370.537 295.514 372.988L245.834 401.639C243.793 402.825 241.229 403.489 238.728 403.632C241.83 403.822 245.265 403.142 247.86 401.639L297.54 372.988C301.781 370.537 302.256 366.837 298.568 364.702Z" fill="#03A100"/>
<path d="M239.778 395.229C237.958 395.229 236.217 394.866 234.919 394.107L196.397 371.89C195.068 371.116 194.324 370.025 194.324 368.823C194.324 367.4 195.353 365.993 197.157 364.949L234.144 343.618C237.42 341.721 242.421 341.531 245.27 343.176L283.792 365.392C285.121 366.166 285.865 367.242 285.865 368.443C285.865 369.867 284.836 371.274 283.032 372.317L246.045 393.648C244.257 394.676 241.962 395.213 239.778 395.213V395.229ZM235.362 393.348C237.974 394.85 242.564 394.66 245.602 392.905L282.589 371.574C284.108 370.689 284.979 369.566 284.979 368.475C284.979 367.605 284.393 366.783 283.349 366.182L244.827 343.966C242.215 342.464 237.626 342.654 234.587 344.409L197.6 365.74C196.081 366.609 195.21 367.748 195.21 368.839C195.21 369.708 195.796 370.531 196.841 371.132L235.362 393.348Z" fill="url(#paint32_linear_1_23)"/>
<path d="M235.832 402.224L184.079 372.371C180.407 370.252 180.866 366.536 185.108 364.086L234.787 335.434C236.797 334.264 239.314 333.6 241.783 333.442C238.633 333.22 235.12 333.9 232.461 335.434L182.781 364.086C178.54 366.536 178.065 370.236 181.752 372.371L233.505 402.224C235.436 403.331 238.127 403.79 240.865 403.616C238.966 403.474 237.209 403.015 235.832 402.224Z" fill="#03A100"/>
<path d="M249.332 411.807L293.108 386.507C293.504 386.27 293.836 385.653 293.836 385.116V383.044C293.836 382.507 293.504 382.27 293.108 382.491L249.332 407.79C248.936 408.028 248.604 408.644 248.604 409.182V411.253C248.604 411.791 248.936 412.028 249.332 411.807Z" fill="#47FC28"/>
<path d="M292.143 385.97C292.539 385.732 292.871 385.116 292.871 384.578V382.649L293.108 382.522C293.504 382.285 293.836 382.522 293.836 383.076V385.147C293.836 385.685 293.504 386.302 293.108 386.539L249.332 411.838C248.936 412.075 248.604 411.838 248.604 411.285V411.158L292.143 386.001V385.97Z" fill="#03A100"/>
<path d="M231.305 411.807L187.529 386.507C187.134 386.27 186.801 385.653 186.801 385.116V383.044C186.801 382.507 187.134 382.27 187.529 382.491L231.305 407.79C231.701 408.028 232.034 408.644 232.034 409.182V411.253C232.034 411.791 231.701 412.028 231.305 411.807Z" fill="#47FC28"/>
<path d="M188.495 385.97C188.099 385.732 187.767 385.116 187.767 384.578V382.649L187.529 382.522C187.134 382.285 186.801 382.522 186.801 383.076V385.147C186.801 385.685 187.134 386.302 187.529 386.539L231.305 411.838C231.701 412.075 232.034 411.838 232.034 411.285V411.158L188.495 386.001V385.97Z" fill="#03A100"/>
<path style="mix-blend-mode:lighten" d="M285.986 0.5H195.316V234.774H195.379C195.173 235.928 195.743 237.082 197.168 237.904L235.69 260.12C238.428 261.702 243.207 261.496 246.372 259.678L283.359 238.347C285.132 237.319 285.986 236.023 285.939 234.774H285.971V128.5L285.986 0.5Z" fill="url(#paint33_linear_1_23)"/>
<g opacity="0.5">
<path d="M142.598 256.073H123.052L101.29 243.518C98.4888 241.905 93.5984 242.11 90.354 243.976L69.3679 256.073H49.8221V263.741C49.743 264.833 50.3602 265.892 51.7055 266.667L91.1295 289.405C93.9308 291.017 98.8212 290.812 102.066 288.946L139.923 267.109C141.6 266.145 142.503 264.912 142.582 263.726V256.057L142.598 256.073Z" fill="url(#paint34_linear_1_23)"/>
<path d="M139.923 266.224L102.066 288.061C98.8212 289.926 93.9308 290.132 91.1295 288.519L51.7055 265.781C50.3602 265.006 49.743 263.947 49.8221 262.856V263.757C49.743 264.848 50.3602 265.908 51.7055 266.683L91.1295 289.42C93.9308 291.033 98.8212 290.828 102.066 288.962L139.923 267.125C141.6 266.161 142.503 264.927 142.582 263.742V262.84C142.503 264.026 141.6 265.244 139.923 266.224Z" fill="#03A100"/>
<path d="M51.0566 264.643V256.974H70.6024L91.5885 244.878C94.8329 243.012 99.7233 242.806 102.525 244.419L124.286 256.974H142.598V256.073H123.052L101.29 243.518C98.4888 241.905 93.5984 242.11 90.354 243.976L69.3679 256.073H49.8221V263.741C49.743 264.833 50.3602 265.892 51.7055 266.667L51.927 266.793C51.294 266.145 51.0091 265.402 51.0566 264.643Z" fill="#95FF83"/>
<path d="M141.49 257.132V264.738C141.442 265.402 141.126 266.098 140.556 266.73C141.838 265.829 142.518 264.769 142.598 263.742V256.215C142.202 256.484 141.822 256.768 141.49 257.132Z" fill="#03A100"/>
<path d="M91.1295 281.751L51.7054 259.014C48.9041 257.401 49.2523 254.57 52.4968 252.705L90.354 230.868C93.5984 229.002 98.4888 228.797 101.29 230.409L140.714 253.147C143.515 254.76 143.167 257.59 139.923 259.456L102.066 281.293C98.8212 283.159 93.9308 283.364 91.1295 281.751Z" fill="url(#paint35_linear_1_23)"/>
<path d="M140.698 253.147L101.274 230.409C99.8183 229.571 97.8083 229.224 95.7508 229.35C97.2385 229.445 98.6471 229.793 99.7233 230.409L139.147 253.147C141.949 254.76 141.6 257.591 138.356 259.456L100.499 281.293C98.932 282.194 96.9853 282.7 95.0861 282.811C97.4601 282.953 100.056 282.431 102.05 281.293L139.907 259.456C143.151 257.591 143.5 254.76 140.698 253.147Z" fill="#03A100"/>
<path d="M92.902 281.752L53.478 259.014C50.6767 257.401 51.0249 254.57 54.2694 252.705L92.1265 230.868C93.6617 229.983 95.5767 229.477 97.4601 229.35C95.0545 229.176 92.3798 229.698 90.354 230.868L52.4968 252.705C49.2523 254.57 48.9041 257.401 51.7054 259.014L91.1295 281.752C92.6013 282.605 94.6588 282.937 96.7321 282.811C95.2919 282.7 93.9466 282.352 92.902 281.752Z" fill="#95FF83"/>
</g>
<g opacity="0.2">
<path d="M422 487.452H406.237L388.701 477.332C386.438 476.036 382.497 476.194 379.886 477.696L362.983 487.452H347.235V493.635C347.172 494.52 347.663 495.374 348.755 495.991L380.534 514.317C382.798 515.614 386.738 515.455 389.35 513.953L419.863 496.354C421.225 495.58 421.937 494.583 422.016 493.635V487.452H422Z" fill="url(#paint36_linear_1_23)"/>
<path d="M419.848 495.627L389.334 513.226C386.723 514.728 382.782 514.886 380.519 513.59L348.739 495.263C347.647 494.631 347.156 493.793 347.219 492.907V493.635C347.156 494.52 347.647 495.374 348.739 495.991L380.519 514.317C382.782 515.614 386.723 515.455 389.334 513.953L419.848 496.354C421.209 495.58 421.921 494.583 422 493.635V492.907C421.937 493.856 421.209 494.852 419.848 495.627Z" fill="url(#paint37_linear_1_23)"/>
<path d="M348.232 494.346V488.164H363.98L380.883 478.407C383.494 476.905 387.435 476.731 389.698 478.044L407.234 488.164H422V487.436H406.237L388.701 477.316C386.438 476.02 382.497 476.178 379.886 477.68L362.983 487.436H347.235V493.619C347.172 494.504 347.663 495.358 348.755 495.975L348.929 496.086C348.422 495.564 348.185 494.963 348.232 494.346Z" fill="#95FF83"/>
<path d="M421.114 488.29V494.409C421.082 494.947 420.813 495.5 420.37 496.022C421.399 495.295 421.953 494.441 422.016 493.619V487.547C421.699 487.753 421.383 487.99 421.114 488.29Z" fill="#6EE8FC"/>
<path d="M380.518 508.134L348.739 489.808C346.475 488.511 346.76 486.235 349.372 484.717L379.885 467.118C382.497 465.615 386.437 465.442 388.701 466.754L420.48 485.08C422.744 486.377 422.459 488.654 419.847 490.172L389.334 507.771C386.722 509.273 382.782 509.447 380.518 508.134Z" fill="url(#paint38_linear_1_23)"/>
<path d="M420.481 485.08L388.701 466.754C387.53 466.074 385.915 465.805 384.254 465.9C385.456 465.979 386.58 466.248 387.451 466.754L419.23 485.08C421.494 486.377 421.209 488.654 418.597 490.172L388.084 507.771C386.833 508.498 385.251 508.909 383.715 508.988C385.63 509.099 387.72 508.688 389.318 507.771L419.832 490.172C422.443 488.67 422.728 486.393 420.465 485.08H420.481Z" fill="#6EE8FC"/>
<path d="M381.943 508.134L350.163 489.808C347.9 488.511 348.185 486.234 350.796 484.716L381.31 467.117C382.544 466.406 384.095 465.995 385.599 465.9C383.668 465.758 381.516 466.184 379.87 467.117L349.356 484.716C346.745 486.219 346.46 488.495 348.723 489.808L380.503 508.134C381.69 508.814 383.336 509.099 385.013 508.988C383.858 508.909 382.766 508.624 381.927 508.134H381.943Z" fill="#95FF83"/>
</g>
<path d="M71.7102 494.22C68.8456 494.22 66.1235 493.65 64.0818 492.465L3.22862 457.362C1.15534 456.16 0 454.468 0 452.602C0 450.388 1.61431 448.19 4.43144 446.562L62.8474 412.866C68.0068 409.893 75.841 409.577 80.3357 412.17L141.189 447.273C143.262 448.475 144.418 450.167 144.418 452.033C144.418 454.247 142.803 456.444 139.986 458.073L81.5702 491.769C78.7531 493.397 75.1446 494.22 71.7102 494.22ZM64.6832 491.405C68.8298 493.809 76.1259 493.492 80.953 490.709L139.369 457.014C141.806 455.606 143.199 453.788 143.199 452.033C143.199 450.626 142.265 449.313 140.588 448.333L79.7343 413.23C75.5878 410.842 68.2917 411.158 63.4646 413.925L5.04868 447.621C2.61139 449.029 1.21865 450.847 1.21865 452.602C1.21865 454.009 2.15242 455.322 3.83003 456.302L64.6832 491.405Z" fill="url(#paint39_linear_1_23)"/>
<path opacity="0.5" d="M71.7102 477.222C68.8456 477.222 66.1235 476.652 64.0818 475.466L3.22862 440.363C1.15534 439.162 0 437.47 0 435.604C0 433.39 1.61431 431.192 4.43144 429.564L62.8474 395.868C68.0068 392.895 75.841 392.579 80.3357 395.172L141.189 430.275C143.262 431.477 144.418 433.169 144.418 435.035C144.418 437.248 142.803 439.446 139.986 441.075L81.5702 474.771C78.7531 476.399 75.1446 477.222 71.7102 477.222ZM64.6832 474.407C68.8298 476.81 76.1259 476.494 80.953 473.711L139.369 440.016C141.806 438.608 143.199 436.79 143.199 435.035C143.199 433.627 142.265 432.315 140.588 431.335L79.7343 396.232C75.5878 393.844 68.2759 394.144 63.4646 396.927L5.04868 430.623C2.61139 432.03 1.21865 433.849 1.21865 435.604C1.21865 437.011 2.15242 438.324 3.83003 439.304L64.6832 474.407Z" fill="url(#paint40_linear_1_23)"/>
<path opacity="0.2" d="M71.7102 459.385C68.8456 459.385 66.1235 458.816 64.0818 457.63L3.22862 422.527C1.15534 421.326 0 419.634 0 417.768C0 415.554 1.61431 413.356 4.43144 411.728L62.8474 378.032C68.0068 375.059 75.841 374.743 80.3357 377.336L141.189 412.439C143.262 413.641 144.418 415.333 144.418 417.199C144.418 419.412 142.803 421.61 139.986 423.239L81.5702 456.935C78.7531 458.563 75.1446 459.385 71.7102 459.385ZM64.6832 456.571C68.8298 458.974 76.1259 458.658 80.953 455.875L139.369 422.179C141.806 420.772 143.199 418.954 143.199 417.199C143.199 415.791 142.265 414.479 140.588 413.499L79.7343 378.396C75.5878 376.008 68.2917 376.308 63.4646 379.091L5.04868 412.803C2.61139 414.21 1.21865 416.029 1.21865 417.784C1.21865 419.191 2.15242 420.503 3.83003 421.484L64.6832 456.587V456.571Z" fill="url(#paint41_linear_1_23)"/>
<defs>
<linearGradient id="paint0_linear_1_23" x1="168.252" y1="357.334" x2="316.611" y2="357.334" gradientUnits="userSpaceOnUse">
<stop stop-color="#A31FA9"/>
<stop offset="0.07" stop-color="#8A16A0"/>
<stop offset="0.15" stop-color="#740F98"/>
<stop offset="0.24" stop-color="#640A92"/>
<stop offset="0.34" stop-color="#5A068F"/>
<stop offset="0.48" stop-color="#58068E"/>
<stop offset="0.63" stop-color="#4D21A3"/>
<stop offset="0.94" stop-color="#3167D9"/>
<stop offset="1" stop-color="#2C75E4"/>
</linearGradient>
<linearGradient id="paint1_linear_1_23" x1="673.016" y1="625.174" x2="763.927" y2="607.657" gradientUnits="userSpaceOnUse">
<stop stop-color="#8D139B"/>
<stop offset="0.17" stop-color="#841BA1"/>
<stop offset="0.43" stop-color="#6D32B1"/>
<stop offset="0.76" stop-color="#4958CC"/>
<stop offset="1" stop-color="#2979E4"/>
</linearGradient>
<linearGradient id="paint2_linear_1_23" x1="1.42926e-05" y1="309.913" x2="1.58267" y2="309.913" gradientUnits="userSpaceOnUse">
<stop stop-color="#95FF83"/>
<stop offset="0.07" stop-color="#95FF83"/>
<stop offset="0.15" stop-color="#95FF83"/>
<stop offset="0.24" stop-color="#95FF83"/>
<stop offset="0.34" stop-color="#95FF83"/>
<stop offset="0.48" stop-color="#95FF83"/>
<stop offset="0.63" stop-color="#95FF83"/>
<stop offset="0.94" stop-color="#95FF83"/>
<stop offset="1" stop-color="#95FF83"/>
</linearGradient>
<linearGradient id="paint3_linear_1_23" x1="652.462" y1="565.901" x2="743.373" y2="548.384" gradientUnits="userSpaceOnUse">
<stop stop-color="#95FF83"/>
<stop offset="0.17" stop-color="#95FF83"/>
<stop offset="0.43" stop-color="#95FF83"/>
<stop offset="0.76" stop-color="#95FF83"/>
<stop offset="1" stop-color="#95FF83"/>
</linearGradient>
<linearGradient id="paint4_linear_1_23" x1="1.42926e-05" y1="252.246" x2="1.58267" y2="252.246" gradientUnits="userSpaceOnUse">
<stop stop-color="#A31FA9"/>
<stop offset="0.07" stop-color="#8A16A0"/>
<stop offset="0.15" stop-color="#740F98"/>
<stop offset="0.24" stop-color="#640A92"/>
<stop offset="0.34" stop-color="#5A068F"/>
<stop offset="0.48" stop-color="#58068E"/>
<stop offset="0.63" stop-color="#4D21A3"/>
<stop offset="0.94" stop-color="#3167D9"/>
<stop offset="1" stop-color="#47FC28"/>
</linearGradient>
<linearGradient id="paint5_linear_1_23" x1="627.474" y1="493.809" x2="718.377" y2="476.305" gradientUnits="userSpaceOnUse">
<stop stop-color="#47FC28"/>
<stop offset="0.17" stop-color="#2C87E6"/>
<stop offset="0.44" stop-color="#3D9EEB"/>
<stop offset="0.78" stop-color="#58C4F2"/>
<stop offset="1" stop-color="#6EE1F8"/>
</linearGradient>
<linearGradient id="paint6_linear_1_23" x1="251.326" y1="409.229" x2="399.684" y2="409.229" gradientUnits="userSpaceOnUse">
<stop stop-color="#95FF83"/>
<stop offset="0.07" stop-color="#95FF83"/>
<stop offset="0.15" stop-color="#95FF83"/>
<stop offset="0.24" stop-color="#95FF83"/>
<stop offset="0.34" stop-color="#95FF83"/>
<stop offset="0.48" stop-color="#95FF83"/>
<stop offset="0.63" stop-color="#95FF83"/>
<stop offset="0.94" stop-color="#95FF83"/>
<stop offset="1" stop-color="#95FF83"/>
</linearGradient>
<linearGradient id="paint7_linear_1_23" x1="757.805" y1="678.062" x2="848.715" y2="660.545" gradientUnits="userSpaceOnUse">
<stop stop-color="#95FF83"/>
<stop offset="0.17" stop-color="#95FF83"/>
<stop offset="0.43" stop-color="#95FF83"/>
<stop offset="0.76" stop-color="#95FF83"/>
<stop offset="1" stop-color="#95FF83"/>
</linearGradient>
<linearGradient id="paint8_linear_1_23" x1="251.326" y1="385.527" x2="399.684" y2="385.527" gradientUnits="userSpaceOnUse">
<stop stop-color="#95FF83"/>
<stop offset="0.07" stop-color="#95FF83"/>
<stop offset="0.15" stop-color="#95FF83"/>
<stop offset="0.24" stop-color="#95FF83"/>
<stop offset="0.34" stop-color="#95FF83"/>
<stop offset="0.48" stop-color="#95FF83"/>
<stop offset="0.63" stop-color="#95FF83"/>
<stop offset="0.94" stop-color="#95FF83"/>
<stop offset="1" stop-color="#95FF83"/>
</linearGradient>
<linearGradient id="paint9_linear_1_23" x1="747.538" y1="648.423" x2="838.441" y2="630.919" gradientUnits="userSpaceOnUse">
<stop stop-color="#95FF83"/>
<stop offset="0.17" stop-color="#95FF83"/>
<stop offset="0.43" stop-color="#95FF83"/>
<stop offset="0.76" stop-color="#95FF83"/>
<stop offset="1" stop-color="#95FF83"/>
</linearGradient>
<linearGradient id="paint10_linear_1_23" x1="251.326" y1="361.809" x2="399.684" y2="361.809" gradientUnits="userSpaceOnUse">
<stop stop-color="#95FF83"/>
<stop offset="0.07" stop-color="#95FF83"/>
<stop offset="0.15" stop-color="#95FF83"/>
<stop offset="0.24" stop-color="#95FF83"/>
<stop offset="0.34" stop-color="#95FF83"/>
<stop offset="0.48" stop-color="#95FF83"/>
<stop offset="0.63" stop-color="#95FF83"/>
<stop offset="0.94" stop-color="#95FF83"/>
<stop offset="1" stop-color="#95FF83"/>
</linearGradient>
<linearGradient id="paint11_linear_1_23" x1="737.264" y1="618.797" x2="828.175" y2="601.28" gradientUnits="userSpaceOnUse">
<stop stop-color="#95FF83"/>
<stop offset="0.17" stop-color="#95FF83"/>
<stop offset="0.43" stop-color="#95FF83"/>
<stop offset="0.76" stop-color="#95FF83"/>
<stop offset="1" stop-color="#95FF83"/>
</linearGradient>
<linearGradient id="paint12_linear_1_23" x1="251.326" y1="338.106" x2="399.684" y2="338.106" gradientUnits="userSpaceOnUse">
<stop stop-color="#95FF83"/>
<stop offset="0.07" stop-color="#95FF83"/>
<stop offset="0.15" stop-color="#95FF83"/>
<stop offset="0.24" stop-color="#95FF83"/>
<stop offset="0.34" stop-color="#95FF83"/>
<stop offset="0.48" stop-color="#95FF83"/>
<stop offset="0.63" stop-color="#95FF83"/>
<stop offset="0.94" stop-color="#95FF83"/>
<stop offset="1" stop-color="#95FF83"/>
</linearGradient>
<linearGradient id="paint13_linear_1_23" x1="726.984" y1="589.15" x2="817.887" y2="571.646" gradientUnits="userSpaceOnUse">
<stop stop-color="#47FC28"/>
<stop offset="0.17" stop-color="#2C87E6"/>
<stop offset="0.44" stop-color="#3D9EEB"/>
<stop offset="0.78" stop-color="#58C4F2"/>
<stop offset="1" stop-color="#6EE1F8"/>
</linearGradient>
<linearGradient id="paint14_linear_1_23" x1="278.324" y1="320.633" x2="369.865" y2="320.633" gradientUnits="userSpaceOnUse">
<stop stop-color="#95FF83"/>
<stop offset="0.16" stop-color="#95FF83"/>
<stop offset="0.41" stop-color="#59F071"/>
<stop offset="0.73" stop-color="#01E325"/>
<stop offset="1" stop-color="#008A16"/>
</linearGradient>
<linearGradient id="paint15_linear_1_23" x1="84.688" y1="404.976" x2="233.046" y2="404.976" gradientUnits="userSpaceOnUse">
<stop stop-color="#95FF83"/>
<stop offset="0.07" stop-color="#95FF83"/>
<stop offset="0.15" stop-color="#95FF83"/>
<stop offset="0.24" stop-color="#95FF83"/>
<stop offset="0.34" stop-color="#95FF83"/>
<stop offset="0.48" stop-color="#95FF83"/>
<stop offset="0.63" stop-color="#95FF83"/>
<stop offset="0.94" stop-color="#95FF83"/>
<stop offset="1" stop-color="#95FF83"/>
</linearGradient>
<linearGradient id="paint16_linear_1_23" x1="631" y1="696.775" x2="721.911" y2="679.258" gradientUnits="userSpaceOnUse">
<stop stop-color="#95FF83"/>
<stop offset="0.17" stop-color="#95FF83"/>
<stop offset="0.43" stop-color="#95FF83"/>
<stop offset="0.76" stop-color="#95FF83"/>
<stop offset="1" stop-color="#95FF83"/>
</linearGradient>
<linearGradient id="paint17_linear_1_23" x1="84.688" y1="381.273" x2="233.046" y2="381.273" gradientUnits="userSpaceOnUse">
<stop stop-color="#95FF83"/>
<stop offset="0.07" stop-color="#95FF83"/>
<stop offset="0.15" stop-color="#95FF83"/>
<stop offset="0.24" stop-color="#95FF83"/>
<stop offset="0.34" stop-color="#95FF83"/>
<stop offset="0.48" stop-color="#95FF83"/>
<stop offset="0.63" stop-color="#47FC28"/>
<stop offset="0.94" stop-color="#3167D9"/>
<stop offset="1" stop-color="#2C75E4"/>
</linearGradient>
<linearGradient id="paint18_linear_1_23" x1="620.72" y1="667.128" x2="711.623" y2="649.625" gradientUnits="userSpaceOnUse">
<stop stop-color="#95FF83"/>
<stop offset="0.17" stop-color="#95FF83"/>
<stop offset="0.43" stop-color="#95FF83"/>
<stop offset="0.76" stop-color="#95FF83"/>
<stop offset="1" stop-color="#95FF83"/>
</linearGradient>
<linearGradient id="paint19_linear_1_23" x1="84.688" y1="357.555" x2="233.046" y2="357.555" gradientUnits="userSpaceOnUse">
<stop stop-color="#95FF83"/>
<stop offset="0.07" stop-color="#95FF83"/>
<stop offset="0.15" stop-color="#95FF83"/>
<stop offset="0.24" stop-color="#95FF83"/>
<stop offset="0.34" stop-color="#95FF83"/>
<stop offset="0.48" stop-color="#95FF83"/>
<stop offset="0.63" stop-color="#95FF83"/>
<stop offset="0.94" stop-color="#95FF83"/>
<stop offset="1" stop-color="#95FF83"/>
</linearGradient>
<linearGradient id="paint20_linear_1_23" x1="610.445" y1="637.502" x2="701.348" y2="619.999" gradientUnits="userSpaceOnUse">
<stop stop-color="#95FF83"/>
<stop offset="0.17" stop-color="#95FF83"/>
<stop offset="0.43" stop-color="#95FF83"/>
<stop offset="0.76" stop-color="#95FF83"/>
<stop offset="1" stop-color="#95FF83"/>
</linearGradient>
<linearGradient id="paint21_linear_1_23" x1="84.688" y1="333.853" x2="233.046" y2="333.853" gradientUnits="userSpaceOnUse">
<stop stop-color="#95FF83"/>
<stop offset="0.07" stop-color="#95FF83"/>
<stop offset="0.15" stop-color="#95FF83"/>
<stop offset="0.24" stop-color="#95FF83"/>
<stop offset="0.34" stop-color="#95FF83"/>
<stop offset="0.48" stop-color="#95FF83"/>
<stop offset="0.63" stop-color="#47FC28"/>
<stop offset="0.94" stop-color="#47FC28"/>
<stop offset="1" stop-color="#47FC28"/>
</linearGradient>
<linearGradient id="paint22_linear_1_23" x1="600.158" y1="607.869" x2="691.068" y2="590.352" gradientUnits="userSpaceOnUse">
<stop stop-color="#47FC28"/>
<stop offset="0.17" stop-color="#2C87E6"/>
<stop offset="0.44" stop-color="#3D9EEB"/>
<stop offset="0.78" stop-color="#58C4F2"/>
<stop offset="1" stop-color="#6EE1F8"/>
</linearGradient>
<linearGradient id="paint23_linear_1_23" x1="111.324" y1="316.633" x2="202.865" y2="316.633" gradientUnits="userSpaceOnUse">
<stop stop-color="#95FF83"/>
<stop offset="0.16" stop-color="#95FF83"/>
<stop offset="0.41" stop-color="#59F071"/>
<stop offset="0.73" stop-color="#01E325"/>
<stop offset="1" stop-color="#008A16"/>
</linearGradient>
<linearGradient id="paint24_linear_1_23" x1="167.762" y1="456.887" x2="316.12" y2="456.887" gradientUnits="userSpaceOnUse">
<stop stop-color="#95FF83"/>
<stop offset="0.07" stop-color="#95FF83"/>
<stop offset="0.15" stop-color="#95FF83"/>
<stop offset="0.24" stop-color="#95FF83"/>
<stop offset="0.34" stop-color="#95FF83"/>
<stop offset="0.48" stop-color="#95FF83"/>
<stop offset="0.63" stop-color="#95FF83"/>
<stop offset="0.94" stop-color="#95FF83"/>
<stop offset="1" stop-color="#95FF83"/>
</linearGradient>
<linearGradient id="paint25_linear_1_23" x1="715.788" y1="749.664" x2="806.699" y2="732.147" gradientUnits="userSpaceOnUse">
<stop stop-color="#95FF83"/>
<stop offset="0.17" stop-color="#95FF83"/>
<stop offset="0.43" stop-color="#95FF83"/>
<stop offset="0.76" stop-color="#95FF83"/>
<stop offset="1" stop-color="#95FF83"/>
<stop offset="1.0001" stop-color="#2979E4"/>
</linearGradient>
<linearGradient id="paint26_linear_1_23" x1="167.762" y1="433.169" x2="316.12" y2="433.169" gradientUnits="userSpaceOnUse">
<stop stop-color="#95FF83"/>
<stop offset="0.07" stop-color="#95FF83"/>
<stop offset="0.15" stop-color="#95FF83"/>
<stop offset="0.24" stop-color="#95FF83"/>
<stop offset="0.34" stop-color="#95FF83"/>
<stop offset="0.48" stop-color="#95FF83"/>
<stop offset="0.63" stop-color="#95FF83"/>
<stop offset="0.94" stop-color="#95FF83"/>
<stop offset="1" stop-color="#95FF83"/>
</linearGradient>
<linearGradient id="paint27_linear_1_23" x1="705.522" y1="720.024" x2="796.425" y2="702.521" gradientUnits="userSpaceOnUse">
<stop stop-color="#95FF83"/>
<stop offset="0.17" stop-color="#95FF83"/>
<stop offset="0.43" stop-color="#95FF83"/>
<stop offset="0.76" stop-color="#95FF83"/>
<stop offset="1" stop-color="#95FF83"/>
</linearGradient>
<linearGradient id="paint28_linear_1_23" x1="167.762" y1="409.466" x2="316.12" y2="409.466" gradientUnits="userSpaceOnUse">
<stop stop-color="#95FF83"/>
<stop offset="0.07" stop-color="#95FF83"/>
<stop offset="0.15" stop-color="#95FF83"/>
<stop offset="0.24" stop-color="#95FF83"/>
<stop offset="0.34" stop-color="#95FF83"/>
<stop offset="0.48" stop-color="#95FF83" stop-opacity="0.513726"/>
<stop offset="0.63" stop-color="#95FF83"/>
<stop offset="0.94" stop-color="#95FF83"/>
<stop offset="1" stop-color="#95FF83"/>
</linearGradient>
<linearGradient id="paint29_linear_1_23" x1="695.248" y1="690.399" x2="786.151" y2="672.895" gradientUnits="userSpaceOnUse">
<stop stop-color="#95FF83"/>
<stop offset="0.17" stop-color="#95FF83"/>
<stop offset="0.43" stop-color="#95FF83"/>
<stop offset="0.76" stop-color="#95FF83"/>
<stop offset="1" stop-color="#95FF83"/>
</linearGradient>
<linearGradient id="paint30_linear_1_23" x1="167.762" y1="385.748" x2="316.12" y2="385.748" gradientUnits="userSpaceOnUse">
<stop stop-color="#95FF83"/>
<stop offset="0.07" stop-color="#95FF83"/>
<stop offset="0.15" stop-color="#95FF83"/>
<stop offset="0.24" stop-color="#95FF83"/>
<stop offset="0.34" stop-color="#95FF83"/>
<stop offset="0.48" stop-color="#95FF83"/>
<stop offset="0.63" stop-color="#95FF83"/>
<stop offset="0.94" stop-color="#95FF83"/>
<stop offset="1" stop-color="#95FF83"/>
</linearGradient>
<linearGradient id="paint31_linear_1_23" x1="684.96" y1="660.765" x2="775.871" y2="643.248" gradientUnits="userSpaceOnUse">
<stop stop-color="#47FC28"/>
<stop offset="0.17" stop-color="#2C87E6"/>
<stop offset="0.44" stop-color="#3D9EEB"/>
<stop offset="0.78" stop-color="#58C4F2"/>
<stop offset="1" stop-color="#6EE1F8"/>
</linearGradient>
<linearGradient id="paint32_linear_1_23" x1="194.324" y1="368.633" x2="285.865" y2="368.633" gradientUnits="userSpaceOnUse">
<stop stop-color="#95FF83"/>
<stop offset="0.16" stop-color="#95FF83"/>
<stop offset="0.41" stop-color="#59F071"/>
<stop offset="0.73" stop-color="#01E325"/>
<stop offset="1" stop-color="#008A16"/>
</linearGradient>
<linearGradient id="paint33_linear_1_23" x1="240.643" y1="261.18" x2="240.643" y2="44.5" gradientUnits="userSpaceOnUse">
<stop stop-color="#F4FFE6"/>
<stop offset="0.0549678" stop-color="#D0FE95"/>
<stop offset="0.105288" stop-color="#BAF66D"/>
<stop offset="0.17358" stop-color="#4D8703"/>
<stop offset="0.238277" stop-color="#335704"/>
<stop offset="0.331729" stop-color="#213A00"/>
<stop offset="0.392832" stop-color="#0C3810"/>
<stop offset="0.500661" stop-color="#0C3810"/>
<stop offset="0.741204" stop-color="#0C3810" stop-opacity="0"/>
</linearGradient>
<linearGradient id="paint34_linear_1_23" x1="41.0384" y1="266.461" x2="154.072" y2="266.461" gradientUnits="userSpaceOnUse">
<stop stop-color="#95FF83"/>
<stop offset="0.07" stop-color="#95FF83"/>
<stop offset="0.15" stop-color="#95FF83"/>
<stop offset="0.24" stop-color="#95FF83"/>
<stop offset="0.34" stop-color="#95FF83"/>
<stop offset="0.48" stop-color="#95FF83"/>
<stop offset="0.63" stop-color="#95FF83"/>
<stop offset="0.94" stop-color="#95FF83"/>
<stop offset="1" stop-color="#95FF83"/>
</linearGradient>
<linearGradient id="paint35_linear_1_23" x1="539.306" y1="538.826" x2="608.569" y2="525.48" gradientUnits="userSpaceOnUse">
<stop stop-color="#95FF83"/>
<stop offset="0.17" stop-color="#841BA1"/>
<stop offset="0.43" stop-color="#6D32B1"/>
<stop offset="0.76" stop-color="#4958CC"/>
<stop offset="1" stop-color="#2979E4"/>
</linearGradient>
<linearGradient id="paint36_linear_1_23" x1="340.161" y1="495.817" x2="431.259" y2="495.817" gradientUnits="userSpaceOnUse">
<stop stop-color="#95FF83"/>
<stop offset="0.07" stop-color="#95FF83"/>
<stop offset="0.15" stop-color="#95FF83"/>
<stop offset="0.24" stop-color="#95FF83"/>
<stop offset="0.34" stop-color="#95FF83"/>
<stop offset="0.48" stop-color="#95FF83"/>
<stop offset="0.63" stop-color="#95FF83"/>
<stop offset="0.94" stop-color="#95FF83"/>
<stop offset="1" stop-color="#95FF83"/>
</linearGradient>
<linearGradient id="paint37_linear_1_23" x1="340.161" y1="504.039" x2="431.259" y2="504.039" gradientUnits="userSpaceOnUse">
<stop stop-color="#D4088C"/>
<stop offset="0.23" stop-color="#D4088C"/>
<stop offset="0.51" stop-color="#6EE1F8"/>
<stop offset="0.78" stop-color="#6EE8FC"/>
<stop offset="1" stop-color="#6EE8FC"/>
</linearGradient>
<linearGradient id="paint38_linear_1_23" x1="862.752" y1="785.12" x2="918.573" y2="774.359" gradientUnits="userSpaceOnUse">
<stop stop-color="#95FF83"/>
<stop offset="0.17" stop-color="#95FF83"/>
<stop offset="0.43" stop-color="#95FF83"/>
<stop offset="0.76" stop-color="#95FF83"/>
<stop offset="1" stop-color="#95FF83"/>
</linearGradient>
<linearGradient id="paint39_linear_1_23" x1="0" y1="452.317" x2="144.418" y2="452.317" gradientUnits="userSpaceOnUse">
<stop stop-color="#95FF83"/>
<stop offset="0.23" stop-color="#95FF83"/>
<stop offset="0.51" stop-color="#03A100"/>
<stop offset="0.78" stop-color="#03A100"/>
<stop offset="1" stop-color="#03A100"/>
</linearGradient>
<linearGradient id="paint40_linear_1_23" x1="0" y1="435.319" x2="144.418" y2="435.319" gradientUnits="userSpaceOnUse">
<stop stop-color="#95FF83"/>
<stop offset="0.23" stop-color="#95FF83"/>
<stop offset="0.51" stop-color="#03A100"/>
<stop offset="0.78" stop-color="#03A100"/>
<stop offset="1" stop-color="#03A100"/>
</linearGradient>
<linearGradient id="paint41_linear_1_23" x1="0" y1="417.483" x2="144.418" y2="417.483" gradientUnits="userSpaceOnUse">
<stop stop-color="#95FF83"/>
<stop offset="0.23" stop-color="#95FF83"/>
<stop offset="0.51" stop-color="#03A100"/>
<stop offset="0.78" stop-color="#03A100"/>
<stop offset="1" stop-color="#03A100"/>
</linearGradient>
</defs>
</svg>
