<svg width="217" height="25" viewBox="0 0 217 25" fill="none" xmlns="http://www.w3.org/2000/svg">
<path d="M0.208 24V0.735998H5.328V22.432L2.16 19.312H13.696V24H0.208ZM25.526 24.48C23.5847 24.48 21.8193 24.0107 20.23 23.072C18.6407 22.1333 17.3767 20.752 16.438 18.928C15.4993 17.104 15.03 14.8693 15.03 12.224C15.03 9.664 15.478 7.49333 16.374 5.712C17.2807 3.93067 18.5233 2.58133 20.102 1.664C21.6807 0.735999 23.494 0.271999 25.542 0.271999C27.5473 0.271999 29.3393 0.735999 30.918 1.664C32.5073 2.58133 33.7607 3.93067 34.678 5.712C35.606 7.49333 36.07 9.664 36.07 12.224C36.07 14.8693 35.6113 17.104 34.694 18.928C33.7767 20.752 32.5233 22.1333 30.934 23.072C29.3553 24.0107 27.5527 24.48 25.526 24.48ZM25.526 19.824C26.5927 19.824 27.526 19.552 28.326 19.008C29.126 18.464 29.75 17.6373 30.198 16.528C30.6567 15.408 30.886 13.9893 30.886 12.272C30.886 10.6507 30.662 9.296 30.214 8.208C29.766 7.12 29.1367 6.304 28.326 5.76C27.526 5.20533 26.598 4.928 25.542 4.928C24.5393 4.928 23.6327 5.20533 22.822 5.76C22.022 6.304 21.3873 7.12 20.918 8.208C20.4593 9.296 20.23 10.6507 20.23 12.272C20.23 13.5627 20.3633 14.6827 20.63 15.632C20.8967 16.5813 21.27 17.3653 21.75 17.984C22.23 18.6027 22.79 19.0667 23.43 19.376C24.0807 19.6747 24.7793 19.824 25.526 19.824ZM51.7918 24L46.7838 15.056H44.3198L43.2478 14.816L43.7118 11.616V11.104H47.0878C47.8344 11.104 48.4318 10.976 48.8798 10.72C49.3384 10.464 49.6691 10.1067 49.8718 9.648C50.0744 9.17867 50.1758 8.62933 50.1758 8C50.1758 7.22133 50.0371 6.63467 49.7598 6.24C49.4824 5.84533 49.1144 5.57867 48.6558 5.44C48.2078 5.29067 47.7064 5.216 47.1518 5.216L44.6078 5.2L43.4878 3.392L43.2318 0.735998C43.6478 0.735998 44.0371 0.735998 44.3998 0.735998C44.7731 0.735998 45.2211 0.735998 45.7438 0.735998C46.2664 0.735998 46.9544 0.735998 47.8078 0.735998C49.3011 0.735998 50.6131 0.986665 51.7438 1.488C52.8851 1.98933 53.7758 2.74667 54.4158 3.76C55.0558 4.77333 55.3758 6.04267 55.3758 7.568C55.3758 8.752 55.1518 9.86133 54.7038 10.896C54.2558 11.92 53.5571 12.7573 52.6078 13.408C51.6584 14.048 50.4318 14.4 48.9278 14.464L49.5678 14.208C49.9838 14.208 50.3678 14.2453 50.7198 14.32C51.0718 14.3947 51.3971 14.5333 51.6958 14.736C51.9944 14.9387 52.2611 15.2267 52.4958 15.6L57.7918 24H51.7918ZM39.5518 24V0.735998H44.6238V24H39.5518ZM59.958 24V0.735998H74.214V5.328H63.414L64.966 4.144V10.816L63.414 9.808H73.142V14.384H63.574L64.966 13.392V20.576L63.414 19.376H74.502V24H59.958ZM77.9893 24V0.735998H86.4373L89.3813 13.632L90.1973 17.616H90.2613L91.0933 13.632L93.9893 0.735998H102.469V24H97.4933V12.24L97.9893 4.72H97.8293L95.6693 12.192L92.3092 24H88.1973L84.7893 12.192L82.6293 4.72H82.4693L82.9653 12.24V24H77.9893ZM178.631 24.32C176.796 24.32 175.196 23.9573 173.831 23.232C172.476 22.496 171.42 21.44 170.663 20.064C169.916 18.6773 169.543 17.0133 169.543 15.072V0.735998H174.679V14.48C174.679 15.376 174.759 16.1547 174.919 16.816C175.089 17.4773 175.34 18.032 175.671 18.48C176.012 18.9173 176.428 19.2427 176.919 19.456C177.42 19.6693 178.001 19.776 178.663 19.776C179.313 19.776 179.879 19.6693 180.359 19.456C180.849 19.2427 181.255 18.9173 181.575 18.48C181.905 18.0427 182.151 17.4933 182.311 16.832C182.481 16.16 182.567 15.376 182.567 14.48V0.735998H187.703V15.072C187.703 16.9813 187.329 18.6293 186.583 20.016C185.836 21.4027 184.785 22.4693 183.431 23.216C182.076 23.952 180.476 24.32 178.631 24.32ZM191.802 24V0.735998H200.25L203.194 13.632L204.01 17.616H204.074L204.906 13.632L207.802 0.735998H216.282V24H211.306V12.24L211.802 4.72H211.642L209.482 12.192L206.122 24H202.01L198.602 12.192L196.442 4.72H196.282L196.778 12.24V24H191.802Z" fill="#47FC28"/>
<path d="M112.333 24V0.735998H126.589V5.328H115.789L117.341 4.144V10.816L115.789 9.808H125.517V14.384H115.949L117.341 13.392V20.576L115.789 19.376H126.877V24H112.333ZM137.324 16.272C136.642 16.272 136.124 16.096 135.772 15.744C135.431 15.3813 135.196 14.8213 135.068 14.064L134.316 13.04L135.436 12.128H138.092C138.967 12.128 139.692 12 140.268 11.744C140.844 11.488 141.276 11.088 141.564 10.544C141.852 9.98933 141.996 9.26933 141.996 8.384C141.996 7.01867 141.65 6.10133 140.956 5.632C140.274 5.16267 139.298 4.928 138.028 4.928H135.34L133.964 0.735998C134.38 0.735998 134.876 0.735998 135.452 0.735998C136.039 0.735998 136.615 0.735998 137.18 0.735998C137.756 0.735998 138.226 0.735998 138.588 0.735998C141.404 0.735998 143.543 1.328 145.004 2.512C146.476 3.696 147.212 5.568 147.212 8.128C147.212 9.20533 147.058 10.2347 146.748 11.216C146.45 12.1867 145.964 13.056 145.292 13.824C144.62 14.5813 143.735 15.1787 142.636 15.616C141.548 16.0533 140.21 16.272 138.62 16.272H137.324ZM130.364 24V0.735998H135.436V24H130.364ZM157.922 24.32C156.141 24.32 154.536 24.0427 153.106 23.488C151.688 22.9227 150.578 22.0533 149.778 20.88C148.978 19.7067 148.61 18.208 148.674 16.384H153.634C153.656 17.152 153.816 17.808 154.114 18.352C154.413 18.896 154.882 19.312 155.522 19.6C156.162 19.8773 156.994 20.016 158.018 20.016C158.85 20.016 159.533 19.9307 160.066 19.76C160.6 19.5893 160.989 19.3387 161.234 19.008C161.49 18.6667 161.618 18.2507 161.618 17.76C161.618 17.216 161.448 16.768 161.106 16.416C160.765 16.0533 160.226 15.7173 159.49 15.408C158.765 15.0987 157.826 14.7467 156.674 14.352C155.245 13.84 153.992 13.264 152.914 12.624C151.848 11.984 151.021 11.2 150.434 10.272C149.848 9.344 149.554 8.20267 149.554 6.848C149.554 4.736 150.285 3.13067 151.746 2.032C153.218 0.922665 155.213 0.367998 157.73 0.367998C159.448 0.367998 160.882 0.639998 162.034 1.184C163.186 1.71733 164.066 2.51733 164.674 3.584C165.293 4.65067 165.656 5.97333 165.762 7.552H160.898C160.877 6.93333 160.744 6.41067 160.498 5.984C160.264 5.55733 159.917 5.232 159.458 5.008C159 4.784 158.429 4.672 157.746 4.672C156.712 4.672 155.922 4.84267 155.378 5.184C154.834 5.51467 154.562 6.04267 154.562 6.768C154.562 7.312 154.685 7.776 154.93 8.16C155.186 8.53333 155.624 8.88533 156.242 9.216C156.861 9.54667 157.72 9.91467 158.818 10.32C159.842 10.6933 160.824 11.0613 161.762 11.424C162.712 11.776 163.56 12.1973 164.306 12.688C165.053 13.168 165.64 13.776 166.066 14.512C166.504 15.248 166.722 16.1867 166.722 17.328C166.733 19.6533 165.938 21.4027 164.338 22.576C162.738 23.7387 160.6 24.32 157.922 24.32Z" fill="white"/>
</svg>
